<svg width="400" height="500" viewBox="0 0 400 500" fill="none" xmlns="http://www.w3.org/2000/svg">
  <rect width="400" height="500" fill="#FFF1B5"/>

  <g transform="translate(160, 100)">
    <path d="M45.5 15.5C65.5 15.5 81.5 35.5 81.5 55.5C81.5 75.5 65.5 95.5 45.5 95.5C25.5 95.5 9.5 79.5 9.5 59.5C9.5 39.5 25.5 15.5 45.5 15.5Z" fill="#C1DBE8"/>

    <path d="M40 90C40 75 35 65 25 60" stroke="#43302E" stroke-width="3" stroke-linecap="round"/>
    <path d="M40 90C40 70 45 55 60 50" stroke="#43302E" stroke-width="3" stroke-linecap="round"/>
    <path d="M40 90C38 75 20 75 10 75" stroke="#43302E" stroke-width="3" stroke-linecap="round"/>
    <circle cx="40" cy="90" r="4" fill="#43302E"/>
    <circle cx="25" cy="60" r="3" fill="#FFF1B5" stroke="#43302E" stroke-width="1.5"/>
    <circle cx="60" cy="50" r="3" fill="#43302E"/>
    <circle cx="10" cy="75" r="3" fill="#FFF1B5" stroke="#43302E" stroke-width="1.5"/>
  </g>

  <text x="200" y="280" text-anchor="middle" font-family="Georgia, serif" font-size="64" font-weight="700" fill="#43302E">ASAPio</text>
  <text x="200" y="320" text-anchor="middle" font-family="Arial, sans-serif" font-size="18" fill="#43302E" letter-spacing="0.5">Швидке онлайн бронювання</text>
</svg>
